<svg id="svg" version="1.1" xmlns="http://www.w3.org/2000/svg" xmlns:xlink="http://www.w3.org/1999/xlink" width="400" height="626.6666666666666" viewBox="0, 0, 400,626.6666666666666"><g id="svgg"><path id="path0" d="M164.264 29.227 C 163.248 30.122,162.034 31.390,161.567 32.046 L 160.718 33.239 161.848 34.869 C 162.469 35.765,163.773 37.106,164.746 37.849 L 166.515 39.200 193.358 39.196 L 220.200 39.192 221.960 37.793 C 222.928 37.023,224.231 35.699,224.856 34.850 L 225.991 33.307 224.794 31.655 C 224.136 30.746,222.851 29.462,221.939 28.801 L 220.280 27.600 193.196 27.600 L 166.113 27.600 164.264 29.227 M221.915 29.420 C 222.828 30.201,223.958 31.380,224.428 32.039 L 225.282 33.239 224.162 34.854 C 223.547 35.743,222.281 36.994,221.349 37.635 L 219.656 38.800 193.288 38.800 L 166.920 38.800 165.301 37.627 C 161.090 34.576,160.886 33.099,164.252 30.022 L 166.464 28.000 193.360 28.000 L 220.256 28.000 221.915 29.420 M191.719 55.160 C 189.890 56.485,188.053 58.716,186.872 61.047 C 184.126 66.468,181.739 67.591,172.956 67.596 L 166.113 67.600 164.264 69.227 C 163.248 70.122,162.034 71.390,161.567 72.046 L 160.718 73.239 161.848 74.869 C 162.469 75.765,163.773 77.106,164.746 77.849 L 166.515 79.200 193.320 79.200 L 220.124 79.200 221.474 78.171 C 226.561 74.291,226.663 72.224,221.939 68.801 L 220.280 67.600 213.520 67.600 C 208.133 67.600,206.511 67.471,205.534 66.966 C 203.633 65.983,200.819 63.206,199.912 61.418 C 198.437 58.512,196.809 56.445,195.033 55.223 L 193.289 54.023 191.719 55.160 M194.866 55.846 C 196.654 57.085,197.915 58.666,199.307 61.416 C 200.388 63.549,203.091 66.309,205.134 67.366 C 206.115 67.873,207.749 68.000,213.308 68.000 L 220.256 68.000 221.915 69.420 C 222.828 70.201,223.958 71.380,224.428 72.039 L 225.282 73.239 224.157 74.862 C 223.538 75.755,222.398 76.916,221.623 77.443 L 220.214 78.400 193.081 78.400 L 165.948 78.400 163.774 76.226 C 161.044 73.497,161.060 73.037,163.970 70.261 L 166.341 68.000 173.270 67.996 C 182.358 67.991,184.941 66.680,187.809 60.618 C 188.687 58.761,192.304 54.800,193.122 54.800 C 193.251 54.800,194.036 55.271,194.866 55.846 M179.000 94.740 C 177.280 95.796,174.400 99.049,174.400 99.935 C 174.400 100.878,177.183 104.077,178.959 105.175 C 180.237 105.964,180.858 106.000,193.375 106.000 L 206.456 106.000 208.251 104.765 C 209.952 103.594,212.400 100.723,212.400 99.898 C 212.400 99.210,209.887 96.323,208.266 95.149 L 206.680 94.000 193.440 94.001 C 181.280 94.003,180.102 94.063,179.000 94.740 M209.658 97.194 L 212.052 99.588 211.326 100.838 C 210.927 101.526,209.810 102.789,208.844 103.644 L 207.087 105.200 193.280 105.200 L 179.472 105.200 177.136 102.864 C 174.406 100.134,174.411 100.160,176.100 98.100 C 178.947 94.627,178.035 94.800,193.526 94.800 L 207.264 94.800 209.658 97.194 M258.600 229.545 C 255.049 232.166,255.200 231.407,255.200 246.648 L 255.200 260.128 257.536 262.464 L 259.872 264.800 266.810 264.800 C 277.735 264.800,280.068 266.571,282.958 277.058 C 283.512 279.070,284.538 281.995,285.236 283.558 L 286.507 286.400 292.863 286.400 L 299.220 286.400 299.610 285.374 C 300.043 284.235,300.168 234.921,299.748 230.904 L 299.496 228.491 279.848 228.427 L 260.200 228.364 258.600 229.545 M100.247 244.159 C 100.111 245.456,100.000 249.551,100.000 253.259 L 100.000 260.000 93.814 260.000 C 88.108 260.000,87.596 260.060,87.214 260.774 C 86.593 261.934,86.654 285.294,87.280 285.920 C 87.611 286.251,89.647 286.400,93.852 286.400 L 99.944 286.400 100.072 292.581 C 100.227 300.044,99.666 299.467,107.102 299.816 L 113.205 300.103 114.560 297.151 C 117.512 290.726,118.000 288.345,118.000 280.363 C 118.000 273.809,118.076 273.019,118.853 271.496 C 121.444 266.417,125.563 263.949,128.743 265.571 C 134.068 268.288,135.200 270.797,135.200 279.887 L 135.200 286.817 137.323 289.008 C 139.755 291.519,140.136 291.606,142.120 290.100 C 144.787 288.075,144.800 287.992,144.800 273.096 L 144.800 259.713 143.238 257.938 C 142.296 256.868,140.377 255.464,138.409 254.405 C 134.706 252.412,133.600 251.273,131.889 247.691 C 131.120 246.080,129.956 244.515,128.666 243.356 L 126.647 241.540 113.570 241.670 L 100.493 241.800 100.247 244.159 M152.509 298.900 C 151.740 299.734,151.665 300.401,151.490 308.000 C 151.186 321.169,149.593 324.358,142.505 325.994 L 140.411 326.477 140.305 339.915 L 140.200 353.352 136.600 353.411 C 134.620 353.443,132.370 353.588,131.600 353.734 C 130.516 353.938,130.381 353.907,131.000 353.595 C 131.609 353.289,131.287 353.228,129.657 353.342 C 128.409 353.429,127.368 353.722,127.163 354.045 C 126.658 354.843,126.720 356.307,127.266 356.489 C 127.611 356.604,127.621 356.963,127.306 357.869 C 125.976 361.684,126.831 410.616,128.189 408.418 C 128.529 407.868,140.174 408.210,143.000 408.853 C 149.823 410.407,151.235 413.092,151.501 425.017 C 151.881 442.047,149.179 445.020,133.602 444.715 C 127.280 444.592,126.800 444.722,126.800 446.560 C 126.800 448.096,126.931 448.112,140.491 448.304 L 153.258 448.485 154.229 447.573 C 154.763 447.071,155.200 446.370,155.200 446.014 C 155.200 440.468,158.455 436.688,164.382 435.350 C 167.839 434.569,168.260 434.093,168.957 430.173 C 169.941 424.636,171.585 422.390,175.800 420.820 C 178.185 419.932,186.338 419.050,188.041 419.495 C 188.461 419.605,189.059 419.483,189.371 419.224 C 189.807 418.862,190.128 418.873,190.769 419.273 C 191.437 419.690,191.757 419.694,192.400 419.293 C 193.189 418.800,193.200 418.894,193.202 425.897 L 193.205 433.000 196.254 433.731 C 202.489 435.227,205.103 438.111,206.383 444.905 C 207.040 448.392,205.818 448.100,220.564 448.301 L 233.400 448.476 234.243 447.538 C 234.711 447.017,235.290 445.534,235.545 444.200 C 236.930 436.972,240.033 435.138,251.200 434.948 C 254.830 434.886,257.890 434.807,258.000 434.772 C 258.110 434.737,258.515 434.740,258.900 434.779 C 259.465 434.837,259.600 434.532,259.600 433.200 C 259.600 431.868,259.465 431.563,258.900 431.621 C 258.515 431.660,258.110 431.660,258.000 431.621 C 257.890 431.581,254.992 431.483,251.560 431.403 C 237.204 431.066,235.200 428.827,235.200 413.126 C 235.200 397.432,237.758 394.715,252.338 394.924 C 255.274 394.966,257.749 394.882,257.839 394.738 C 257.928 394.593,258.361 394.569,258.800 394.684 C 259.596 394.892,259.600 394.690,259.600 354.054 L 259.600 313.215 258.700 313.033 C 258.205 312.933,256.990 312.754,256.000 312.635 C 255.010 312.515,253.750 312.309,253.200 312.175 C 252.650 312.041,247.520 311.789,241.800 311.614 C 226.425 311.144,223.247 309.599,222.173 302.068 C 222.004 300.882,221.531 299.798,220.878 299.100 L 219.850 298.000 186.595 298.000 L 153.339 298.000 152.509 298.900 M129.600 353.782 C 129.600 354.177,127.635 355.901,127.424 355.691 C 127.050 355.317,127.169 354.889,127.829 354.229 C 128.404 353.653,129.600 353.351,129.600 353.782 M193.032 416.301 C 192.597 416.737,192.431 416.167,192.708 415.183 L 192.984 414.200 193.124 415.134 C 193.201 415.648,193.160 416.173,193.032 416.301 M192.321 418.650 C 191.378 419.594,190.553 418.936,191.444 417.951 C 191.923 417.422,192.270 417.310,192.553 417.593 C 192.836 417.876,192.764 418.208,192.321 418.650 " stroke="none" fill="#d42c34" fill-rule="evenodd"></path><path id="path1" d="M164.252 30.022 C 160.886 33.099,161.090 34.576,165.301 37.627 L 166.920 38.800 193.288 38.800 L 219.656 38.800 221.349 37.635 C 222.281 36.994,223.547 35.743,224.162 34.854 L 225.282 33.239 224.428 32.039 C 223.958 31.380,222.828 30.201,221.915 29.420 L 220.256 28.000 193.360 28.000 L 166.464 28.000 164.252 30.022 M190.863 56.619 C 189.667 57.694,188.419 59.329,187.809 60.618 C 184.941 66.680,182.358 67.991,173.270 67.996 L 166.341 68.000 163.970 70.261 C 161.060 73.037,161.044 73.497,163.774 76.226 L 165.948 78.400 193.081 78.400 L 220.214 78.400 221.623 77.443 C 222.398 76.916,223.538 75.755,224.157 74.862 L 225.282 73.239 224.428 72.039 C 223.958 71.380,222.828 70.201,221.915 69.420 L 220.256 68.000 213.308 68.000 C 207.749 68.000,206.115 67.873,205.134 67.366 C 203.091 66.309,200.388 63.549,199.307 61.416 C 197.915 58.666,196.654 57.085,194.866 55.846 C 192.968 54.531,193.246 54.477,190.863 56.619 M178.594 95.657 C 177.223 96.641,174.800 99.483,174.800 100.107 C 174.800 100.339,175.851 101.579,177.136 102.864 L 179.472 105.200 193.280 105.200 L 207.087 105.200 208.844 103.644 C 209.810 102.789,210.927 101.526,211.326 100.838 L 212.052 99.588 209.658 97.194 L 207.264 94.800 193.526 94.800 C 180.121 94.800,179.760 94.821,178.594 95.657 " stroke="none" fill="#e3c6ae" fill-rule="evenodd"></path><path id="path2" d="M153.200 3.400 L 153.200 6.800 151.500 6.872 C 150.565 6.912,147.910 6.903,145.600 6.853 C 143.290 6.802,141.161 6.924,140.869 7.123 C 140.257 7.541,140.058 138.634,140.668 139.210 C 140.851 139.382,141.360 139.609,141.800 139.715 C 142.784 139.951,126.803 140.177,120.161 140.021 C 113.677 139.868,113.436 140.003,113.696 143.641 C 113.810 145.231,113.734 146.400,113.518 146.400 C 113.304 146.400,113.198 147.898,113.272 149.900 L 113.400 153.400 107.267 153.400 C 99.152 153.400,99.895 151.916,100.242 167.442 L 100.521 179.884 99.422 180.094 C 98.818 180.209,96.038 180.211,93.244 180.098 C 86.045 179.806,86.842 176.503,86.842 206.600 C 86.842 236.697,86.045 233.394,93.244 233.102 C 99.331 232.855,100.400 233.003,100.400 234.089 C 100.400 234.633,100.591 234.812,101.000 234.655 C 101.330 234.529,101.600 234.583,101.600 234.776 C 101.600 234.969,107.504 235.151,114.725 235.180 C 133.833 235.257,136.568 236.405,137.808 244.869 C 138.167 247.321,139.172 248.197,142.516 248.969 C 150.676 250.853,151.310 252.504,151.509 272.377 C 151.647 286.184,151.697 287.012,152.455 288.077 L 153.254 289.200 187.213 289.200 C 217.175 289.200,221.397 289.275,223.086 289.836 C 226.961 291.123,229.059 293.393,230.259 297.600 C 230.617 298.853,231.404 300.345,232.088 301.065 L 233.289 302.330 241.345 302.491 C 249.592 302.656,253.285 303.355,255.129 305.100 C 255.419 305.375,255.800 305.600,255.974 305.600 C 256.541 305.600,258.370 308.574,259.430 311.218 L 260.465 313.800 260.332 333.066 C 260.260 343.662,260.351 352.482,260.535 352.666 C 260.719 352.849,263.644 353.000,267.035 353.000 L 273.200 353.000 273.200 363.100 C 273.200 368.655,273.357 373.200,273.548 373.200 C 273.740 373.200,273.875 374.595,273.848 376.300 L 273.800 379.400 277.322 379.363 C 279.323 379.341,280.619 379.468,280.322 379.656 C 280.023 379.846,281.294 379.990,283.300 379.994 L 286.800 380.000 286.874 388.300 C 286.915 392.865,286.894 398.419,286.829 400.641 C 286.654 406.556,286.623 406.523,292.139 406.377 C 294.593 406.312,297.479 406.291,298.553 406.329 L 300.506 406.400 300.353 426.014 C 300.223 442.696,300.285 445.681,300.771 445.981 C 301.517 446.443,338.481 446.444,339.229 445.982 C 339.924 445.553,340.242 422.688,339.577 420.938 C 339.192 419.927,339.130 419.913,335.493 420.015 C 333.462 420.072,330.675 420.092,329.300 420.059 L 326.800 420.000 326.800 403.200 C 326.800 393.960,326.644 386.400,326.453 386.400 C 326.263 386.400,326.198 385.121,326.310 383.559 C 326.569 379.943,326.774 380.048,319.499 380.073 C 316.232 380.084,313.480 380.014,313.383 379.917 C 313.286 379.820,313.185 374.062,313.159 367.121 C 313.132 360.181,312.957 354.254,312.769 353.951 C 312.504 353.523,311.016 353.392,306.114 353.365 L 299.800 353.330 299.795 320.565 C 299.792 302.447,299.632 287.553,299.438 287.247 C 299.169 286.822,298.401 286.745,296.143 286.916 C 294.525 287.038,293.200 286.991,293.200 286.811 C 293.200 286.631,291.085 286.412,288.500 286.323 C 279.741 286.022,276.572 283.191,275.395 274.613 C 274.949 271.369,274.483 271.200,266.003 271.200 C 249.571 271.200,248.414 269.582,248.414 246.600 C 248.414 221.321,247.491 222.082,278.300 221.933 C 289.355 221.880,298.400 221.699,298.400 221.531 C 298.400 221.363,298.641 221.318,298.936 221.431 C 299.505 221.649,300.276 196.422,299.758 194.524 C 299.455 193.411,297.190 193.087,291.000 193.270 L 286.600 193.400 286.706 170.100 C 286.772 155.773,286.668 146.800,286.437 146.800 C 286.217 146.800,286.154 145.578,286.285 143.843 C 286.578 139.976,286.394 139.866,279.839 140.021 C 272.242 140.200,230.908 139.930,231.800 139.707 C 233.090 139.385,233.183 138.896,233.124 132.699 C 233.093 129.454,233.166 126.701,233.285 126.582 C 233.404 126.462,236.359 126.328,239.851 126.282 L 246.200 126.200 246.152 123.100 C 246.125 121.395,246.260 120.000,246.452 120.000 C 246.648 120.000,246.800 96.622,246.800 66.600 C 246.800 35.900,246.650 13.200,246.446 13.200 C 246.251 13.200,246.186 12.033,246.300 10.606 C 246.603 6.837,246.403 6.688,241.215 6.820 C 238.897 6.879,236.145 6.899,235.100 6.864 L 233.200 6.800 233.200 3.400 L 233.200 0.000 193.200 0.000 L 153.200 0.000 153.200 3.400 M227.567 21.800 C 231.169 23.130,232.382 26.014,232.394 33.280 C 232.409 42.827,230.923 44.755,222.878 45.630 C 215.700 46.411,162.272 45.914,159.625 45.041 C 155.528 43.691,154.215 40.803,154.241 33.200 C 154.270 24.709,155.872 22.071,161.510 21.225 C 166.867 20.421,225.207 20.929,227.567 21.800 M201.767 48.784 C 204.176 49.950,204.930 51.501,205.670 56.800 L 206.200 60.600 215.800 60.827 C 231.045 61.187,232.394 62.209,232.384 73.400 C 232.376 82.748,230.824 84.766,222.986 85.618 C 215.706 86.410,162.304 85.924,159.625 85.041 C 155.525 83.690,154.199 80.725,154.243 73.000 C 154.303 62.227,155.708 61.181,170.481 60.904 C 181.421 60.699,180.498 61.123,181.154 56.002 C 182.085 48.736,184.003 47.542,194.418 47.744 C 199.149 47.836,200.082 47.968,201.767 48.784 M209.400 87.618 C 217.844 88.583,218.959 90.030,218.949 100.000 C 218.936 112.466,218.814 112.520,191.558 112.326 C 169.251 112.168,169.216 112.157,167.966 105.168 C 166.484 96.871,168.466 89.459,172.454 88.386 C 176.618 87.264,201.740 86.742,209.400 87.618 M245.445 124.588 C 245.080 125.144,244.606 125.600,244.391 125.600 C 244.176 125.600,244.360 125.240,244.800 124.800 C 245.240 124.360,245.600 123.790,245.600 123.533 C 245.600 123.277,245.714 123.181,245.854 123.321 C 245.994 123.461,245.810 124.031,245.445 124.588 M88.686 181.720 C 88.199 182.226,87.726 182.587,87.636 182.523 C 87.402 182.355,88.858 180.800,89.248 180.800 C 89.426 180.800,89.173 181.214,88.686 181.720 M298.400 194.800 C 298.840 195.240,299.188 195.825,299.173 196.100 C 299.158 196.375,298.959 196.214,298.731 195.742 C 298.502 195.271,297.929 194.698,297.458 194.469 C 296.986 194.241,296.825 194.042,297.100 194.027 C 297.375 194.012,297.960 194.360,298.400 194.800 M89.323 232.364 C 89.155 232.598,87.600 231.142,87.600 230.752 C 87.600 230.574,88.014 230.827,88.520 231.314 C 89.026 231.801,89.387 232.274,89.323 232.364 M125.708 272.098 C 124.929 272.939,124.859 273.572,124.688 281.400 C 124.341 297.333,121.644 300.178,107.000 300.064 C 99.418 300.005,100.174 298.468,100.343 313.588 L 100.486 326.400 96.843 326.400 C 94.839 326.400,93.200 326.559,93.200 326.754 C 93.200 326.949,92.033 327.014,90.606 326.900 C 86.777 326.592,86.801 326.550,86.872 333.645 C 86.905 336.921,86.821 339.712,86.686 339.847 C 86.551 339.982,83.743 340.084,80.447 340.073 C 73.337 340.049,73.395 340.016,73.700 343.806 C 73.814 345.233,73.749 346.400,73.554 346.400 C 73.358 346.400,73.200 350.847,73.200 356.350 L 73.200 366.301 67.151 366.473 C 61.882 366.623,61.034 366.739,60.570 367.374 C 59.961 368.207,59.926 392.060,60.533 392.667 C 60.971 393.105,99.033 393.101,99.467 392.663 C 99.650 392.478,99.735 386.493,99.656 379.363 L 99.512 366.400 101.456 366.329 C 102.525 366.291,105.407 366.312,107.861 366.377 C 113.377 366.523,113.346 366.556,113.171 360.641 C 113.106 358.419,113.085 355.779,113.126 354.776 L 113.200 352.952 118.936 353.124 C 126.498 353.352,126.584 353.308,126.285 349.357 C 126.157 347.655,126.218 346.400,126.431 346.400 C 126.647 346.400,126.800 342.243,126.800 336.400 L 126.800 326.400 133.373 326.400 C 139.287 326.400,139.967 326.330,140.154 325.700 C 141.509 321.143,142.400 313.712,142.400 306.974 C 142.400 298.442,142.561 298.769,137.757 297.539 C 130.060 295.567,128.783 293.248,128.497 280.731 C 128.326 273.240,128.275 272.822,127.431 272.029 L 126.544 271.196 125.708 272.098 M262.542 351.931 C 263.014 352.159,263.175 352.358,262.900 352.373 C 262.625 352.388,262.040 352.040,261.600 351.600 C 261.160 351.160,260.812 350.575,260.827 350.300 C 260.842 350.025,261.041 350.186,261.269 350.658 C 261.498 351.129,262.071 351.702,262.542 351.931 M311.802 354.802 C 312.825 355.932,312.390 356.037,311.314 354.920 C 310.827 354.414,310.574 354.000,310.752 354.000 C 310.930 354.000,311.403 354.361,311.802 354.802 M111.802 364.798 C 111.403 365.239,110.930 365.600,110.752 365.600 C 110.574 365.600,110.827 365.186,111.314 364.680 C 112.390 363.563,112.825 363.668,111.802 364.798 M275.526 378.300 C 275.871 378.575,275.949 378.800,275.699 378.800 C 275.191 378.800,273.993 377.246,274.012 376.611 C 274.019 376.385,274.221 376.560,274.462 377.000 C 274.703 377.440,275.181 378.025,275.526 378.300 M62.542 391.931 C 63.014 392.159,63.175 392.358,62.900 392.373 C 62.625 392.388,62.040 392.040,61.600 391.600 C 61.160 391.160,60.812 390.575,60.827 390.300 C 60.842 390.025,61.041 390.186,61.269 390.658 C 61.498 391.129,62.071 391.702,62.542 391.931 M98.844 391.119 C 98.428 391.895,97.250 392.583,96.913 392.246 C 96.818 392.151,97.104 391.957,97.549 391.816 C 97.995 391.675,98.475 391.195,98.616 390.749 C 98.757 390.304,98.961 390.028,99.069 390.136 C 99.177 390.243,99.075 390.686,98.844 391.119 M256.401 403.913 C 256.401 404.071,254.216 404.144,251.545 404.076 L 246.688 403.951 245.344 405.254 L 244.000 406.557 244.000 413.200 L 244.000 419.843 245.349 421.151 L 246.698 422.458 251.549 422.329 C 254.218 422.258,256.401 422.329,256.400 422.487 C 256.400 422.801,257.290 422.572,258.700 421.896 C 259.590 421.469,259.600 421.376,259.600 413.200 C 259.600 405.024,259.590 404.931,258.700 404.504 C 257.290 403.828,256.400 403.599,256.401 403.913 M289.323 405.564 C 289.155 405.798,287.600 404.342,287.600 403.952 C 287.600 403.774,288.014 404.027,288.520 404.514 C 289.026 405.001,289.387 405.474,289.323 405.564 M127.051 418.279 C 126.730 420.621,126.731 432.932,127.053 434.877 C 127.293 436.329,127.314 436.344,128.249 435.731 C 128.772 435.388,129.200 435.264,129.199 435.454 C 129.197 436.441,140.176 435.578,141.300 434.503 L 142.400 433.450 142.400 426.556 L 142.400 419.662 141.194 418.456 L 139.988 417.250 134.123 417.325 C 130.023 417.377,128.113 417.256,127.780 416.923 C 127.410 416.553,127.246 416.859,127.051 418.279 M179.835 420.742 C 179.605 421.528,178.536 426.823,178.208 428.800 C 176.637 438.272,175.532 440.509,171.475 442.428 C 170.114 443.072,168.596 443.600,168.101 443.600 C 166.687 443.600,164.134 446.162,163.807 447.908 C 163.010 452.166,160.603 455.027,156.649 456.416 C 154.000 457.347,128.162 457.709,127.614 456.823 C 127.016 455.855,126.795 460.415,126.842 472.735 C 126.901 487.931,126.266 486.585,133.244 486.302 C 136.038 486.189,138.803 486.188,139.390 486.300 L 140.457 486.504 140.366 546.056 C 140.316 578.810,140.408 605.741,140.570 605.904 C 141.056 606.390,164.813 606.421,165.718 605.937 C 166.430 605.556,166.487 605.220,166.285 602.557 C 166.157 600.855,166.218 599.600,166.431 599.600 C 166.655 599.600,166.800 577.325,166.800 543.029 C 166.800 489.482,166.837 486.450,167.500 486.295 C 167.885 486.205,170.540 486.203,173.400 486.292 C 180.246 486.503,179.800 486.983,179.800 479.413 L 179.800 473.200 192.000 473.160 C 207.245 473.110,206.213 473.379,206.152 469.476 C 206.125 467.784,206.260 466.400,206.452 466.400 C 206.825 466.400,207.020 473.904,206.827 480.826 C 206.665 486.638,206.588 486.572,213.244 486.302 C 216.038 486.189,218.803 486.188,219.390 486.300 L 220.457 486.504 220.366 546.056 C 220.316 578.810,220.408 605.741,220.570 605.904 C 221.056 606.390,244.813 606.421,245.718 605.937 C 246.430 605.556,246.487 605.220,246.285 602.557 C 246.157 600.855,246.218 599.600,246.431 599.600 C 246.655 599.600,246.800 577.325,246.800 543.029 C 246.800 489.482,246.837 486.450,247.500 486.295 C 247.885 486.205,250.540 486.203,253.400 486.292 C 256.587 486.390,258.832 486.293,259.200 486.040 C 260.294 485.288,259.778 445.200,258.664 444.420 C 257.820 443.829,256.399 443.544,256.401 443.967 C 256.401 444.095,254.216 444.144,251.545 444.076 L 246.688 443.951 245.381 445.219 C 244.600 445.976,243.963 447.073,243.800 447.943 C 243.010 452.165,240.591 455.031,236.649 456.416 C 233.901 457.382,208.160 457.706,207.589 456.782 C 207.370 456.427,207.207 456.706,207.095 457.626 C 207.003 458.382,206.899 456.179,206.864 452.732 L 206.800 446.464 205.500 446.190 C 197.003 444.404,193.023 438.174,193.134 426.835 C 193.168 423.312,193.027 420.873,192.770 420.564 C 192.064 419.714,180.087 419.878,179.835 420.742 M129.323 485.564 C 129.155 485.798,127.600 484.342,127.600 483.952 C 127.600 483.774,128.014 484.027,128.520 484.514 C 129.026 485.001,129.387 485.474,129.323 485.564 M209.323 485.564 C 209.155 485.798,207.600 484.342,207.600 483.952 C 207.600 483.774,208.014 484.027,208.520 484.514 C 209.026 485.001,209.387 485.474,209.323 485.564 M142.542 605.131 C 143.014 605.359,143.175 605.558,142.900 605.573 C 142.252 605.608,140.792 604.148,140.827 603.500 C 140.842 603.225,141.041 603.386,141.269 603.858 C 141.498 604.329,142.071 604.902,142.542 605.131 M222.542 605.131 C 223.014 605.359,223.175 605.558,222.900 605.573 C 222.252 605.608,220.792 604.148,220.827 603.500 C 220.842 603.225,221.041 603.386,221.269 603.858 C 221.498 604.329,222.071 604.902,222.542 605.131 " stroke="none" fill="#0c0c24" fill-rule="evenodd"></path><path id="path3" d="M163.111 22.222 C 156.301 23.872,153.684 29.798,155.987 38.350 C 157.742 44.868,159.550 45.200,193.357 45.200 C 226.902 45.200,228.124 44.992,230.407 38.891 C 233.486 30.660,230.578 23.964,223.164 22.216 C 219.529 21.359,166.647 21.364,163.111 22.222 M221.939 28.801 C 222.851 29.462,224.136 30.746,224.794 31.655 L 225.991 33.307 224.856 34.850 C 224.231 35.699,222.928 37.023,221.960 37.793 L 220.200 39.192 193.358 39.196 L 166.515 39.200 164.746 37.849 C 163.773 37.106,162.469 35.765,161.848 34.869 L 160.718 33.239 161.567 32.046 C 162.034 31.390,163.248 30.122,164.264 29.227 L 166.113 27.600 193.196 27.600 L 220.280 27.600 221.939 28.801 M189.257 49.029 C 184.948 50.188,183.266 52.116,182.164 57.158 C 181.156 61.777,181.521 61.599,173.038 61.606 C 164.986 61.612,161.636 62.149,159.065 63.845 C 154.513 66.848,153.822 77.144,157.871 81.626 C 160.812 84.881,160.338 84.841,194.213 84.712 L 223.800 84.600 225.909 83.647 C 229.656 81.954,231.384 78.656,231.384 73.200 C 231.384 64.204,228.129 61.958,214.697 61.687 L 206.394 61.519 205.597 60.506 C 205.159 59.948,204.800 59.099,204.800 58.619 C 204.800 51.293,197.526 46.805,189.257 49.029 M197.934 58.111 C 198.570 59.040,199.460 60.528,199.912 61.418 C 200.819 63.206,203.633 65.983,205.534 66.966 C 206.511 67.471,208.133 67.600,213.520 67.600 L 220.280 67.600 221.939 68.801 C 226.663 72.224,226.561 74.291,221.474 78.171 L 220.124 79.200 193.320 79.200 L 166.515 79.200 164.746 77.849 C 163.773 77.106,162.469 75.765,161.848 74.869 L 160.718 73.239 161.567 72.046 C 162.034 71.390,163.248 70.122,164.264 69.227 L 166.113 67.600 172.956 67.596 C 181.739 67.591,184.126 66.468,186.872 61.047 C 188.053 58.716,189.890 56.485,191.719 55.160 L 193.289 54.023 195.033 55.223 C 195.992 55.883,197.298 57.183,197.934 58.111 M175.491 89.181 C 166.175 92.158,165.893 107.842,175.103 110.690 C 178.033 111.596,208.175 111.773,211.040 110.901 C 220.996 107.870,220.682 91.634,210.616 89.019 C 206.780 88.023,178.710 88.152,175.491 89.181 M208.266 95.149 C 209.887 96.323,212.400 99.210,212.400 99.898 C 212.400 100.723,209.952 103.594,208.251 104.765 L 206.456 106.000 193.375 106.000 C 178.529 106.000,179.194 106.133,176.012 102.518 C 173.986 100.218,173.997 99.622,176.100 97.330 C 179.297 93.846,178.476 94.003,193.440 94.001 L 206.680 94.000 208.266 95.149 M298.400 221.556 C 298.400 221.710,289.355 221.880,278.300 221.933 C 247.491 222.082,248.414 221.321,248.414 246.600 C 248.414 269.582,249.571 271.200,266.003 271.200 C 274.483 271.200,274.949 271.369,275.395 274.613 C 275.894 278.253,277.164 281.499,278.788 283.289 C 280.411 285.077,286.900 287.384,286.292 285.957 C 286.161 285.650,285.505 284.117,284.833 282.549 C 284.161 280.982,283.182 278.095,282.657 276.135 C 280.120 266.653,277.529 264.800,266.810 264.800 L 259.872 264.800 257.536 262.464 L 255.200 260.128 255.200 246.637 L 255.200 233.147 256.213 231.819 C 256.770 231.089,257.918 230.011,258.764 229.425 L 260.302 228.359 279.930 228.425 L 299.558 228.492 299.709 230.146 C 299.792 231.056,299.892 229.526,299.930 226.747 C 299.996 221.999,299.952 221.681,299.200 221.484 C 298.760 221.369,298.400 221.401,298.400 221.556 M100.700 234.715 C 100.074 234.844,100.006 235.393,100.060 239.929 C 100.094 242.806,100.224 244.308,100.360 243.400 L 100.600 241.800 113.621 241.668 L 126.641 241.535 128.663 243.353 C 129.956 244.515,131.119 246.079,131.889 247.691 C 133.600 251.273,134.706 252.412,138.409 254.405 C 140.377 255.464,142.296 256.868,143.238 257.938 L 144.800 259.713 144.800 273.096 C 144.800 287.992,144.787 288.075,142.120 290.100 C 140.136 291.606,139.755 291.519,137.323 289.008 L 135.200 286.817 135.200 279.887 C 135.200 270.797,134.068 268.288,128.743 265.571 C 125.563 263.949,121.444 266.417,118.853 271.496 C 118.076 273.019,118.000 273.809,118.000 280.363 C 118.000 288.319,117.509 290.731,114.606 297.053 L 113.295 299.907 115.667 299.353 C 122.871 297.673,124.400 294.631,124.688 281.400 C 124.859 273.572,124.929 272.939,125.708 272.098 L 126.544 271.196 127.431 272.029 C 128.275 272.822,128.326 273.240,128.497 280.731 C 128.783 293.248,130.060 295.567,137.757 297.539 C 142.563 298.770,142.400 298.439,142.400 306.996 C 142.400 313.432,142.262 314.978,141.203 320.434 C 140.022 326.517,140.006 326.780,140.003 339.872 L 140.000 353.144 139.100 353.338 C 138.307 353.508,138.319 353.523,139.200 353.466 L 140.200 353.400 140.305 339.939 L 140.411 326.477 142.505 325.994 C 149.593 324.358,151.186 321.169,151.490 308.000 C 151.665 300.401,151.740 299.734,152.509 298.900 L 153.339 298.000 186.595 298.000 L 219.850 298.000 220.878 299.100 C 221.531 299.798,222.004 300.882,222.173 302.068 C 223.247 309.599,226.425 311.144,241.800 311.614 C 247.520 311.789,252.650 312.041,253.200 312.175 C 253.750 312.309,255.010 312.515,256.000 312.635 C 256.990 312.754,258.205 312.933,258.700 313.033 L 259.600 313.215 259.600 354.054 C 259.600 394.690,259.596 394.892,258.800 394.684 C 258.361 394.569,257.928 394.593,257.839 394.738 C 257.749 394.882,255.274 394.966,252.338 394.924 C 237.758 394.715,235.200 397.432,235.200 413.126 C 235.200 428.827,237.204 431.066,251.560 431.403 C 254.992 431.483,257.890 431.581,258.000 431.621 C 258.110 431.660,258.515 431.660,258.900 431.621 C 259.465 431.563,259.600 431.868,259.600 433.200 C 259.600 434.532,259.465 434.837,258.900 434.779 C 258.515 434.740,258.110 434.737,258.000 434.772 C 257.890 434.807,254.830 434.886,251.200 434.948 C 240.033 435.138,236.930 436.972,235.545 444.200 C 235.290 445.534,234.711 447.017,234.243 447.538 L 233.400 448.476 220.564 448.301 C 213.504 448.205,207.519 447.997,207.264 447.839 C 206.919 447.627,206.816 449.026,206.864 453.276 C 206.899 456.424,207.003 458.382,207.095 457.626 C 207.207 456.706,207.370 456.427,207.589 456.782 C 208.160 457.706,233.901 457.382,236.649 456.416 C 240.591 455.031,243.010 452.165,243.800 447.943 C 243.963 447.073,244.600 445.976,245.381 445.219 L 246.688 443.951 251.545 444.076 C 254.216 444.144,256.401 444.095,256.401 443.967 C 256.399 443.559,257.994 443.834,258.486 444.326 C 259.912 445.752,260.000 445.108,260.000 433.200 C 260.000 421.684,259.802 420.056,258.630 421.952 C 258.374 422.366,256.400 422.802,256.400 422.445 C 256.401 422.310,254.218 422.258,251.549 422.329 L 246.698 422.458 245.349 421.151 L 244.000 419.843 244.000 413.200 L 244.000 406.557 245.344 405.254 L 246.688 403.951 251.545 404.076 C 254.216 404.144,256.401 404.090,256.401 403.955 C 256.400 403.598,258.374 404.034,258.630 404.448 C 259.995 406.657,260.013 406.018,259.905 358.300 L 259.800 311.800 258.756 309.600 C 256.106 304.014,252.945 302.724,241.345 302.491 L 233.289 302.330 232.088 301.065 C 231.404 300.345,230.617 298.853,230.259 297.600 C 229.059 293.393,226.961 291.123,223.086 289.836 C 221.397 289.275,217.175 289.200,187.213 289.200 L 153.254 289.200 152.455 288.077 C 151.697 287.012,151.647 286.184,151.509 272.377 C 151.310 252.504,150.676 250.853,142.516 248.969 C 139.172 248.197,138.167 247.321,137.808 244.869 C 136.568 236.407,133.830 235.257,114.746 235.180 C 107.539 235.151,101.588 235.002,101.521 234.849 C 101.455 234.696,101.085 234.636,100.700 234.715 M131.000 353.596 C 130.502 353.808,131.031 353.851,132.400 353.712 C 133.610 353.589,134.675 353.423,134.767 353.344 C 135.111 353.047,131.767 353.270,131.000 353.596 M127.829 354.229 C 127.169 354.889,127.050 355.317,127.424 355.691 C 127.635 355.901,129.600 354.177,129.600 353.782 C 129.600 353.351,128.404 353.653,127.829 354.229 M126.828 357.700 C 126.852 358.789,126.912 358.870,127.200 358.200 C 127.675 357.095,127.675 356.400,127.200 356.400 C 126.980 356.400,126.813 356.985,126.828 357.700 M126.893 362.000 C 126.893 362.770,126.975 363.085,127.076 362.700 C 127.176 362.315,127.176 361.685,127.076 361.300 C 126.975 360.915,126.893 361.230,126.893 362.000 M126.877 413.200 C 126.905 416.390,127.001 418.414,127.090 417.697 C 127.219 416.650,127.350 416.493,127.754 416.897 C 128.120 417.263,129.860 417.380,134.123 417.325 L 139.988 417.250 141.194 418.456 L 142.400 419.662 142.400 426.556 L 142.400 433.450 141.300 434.503 C 140.176 435.578,129.197 436.441,129.199 435.454 C 129.200 435.264,128.762 435.395,128.226 435.746 C 127.281 436.365,127.247 436.352,127.086 435.292 C 126.995 434.692,126.893 436.675,126.860 439.700 C 126.822 443.140,126.950 445.200,127.200 445.200 C 127.420 445.200,127.600 445.065,127.600 444.900 C 127.599 444.735,130.278 444.652,133.551 444.715 C 149.187 445.019,151.881 442.062,151.501 425.017 C 151.235 413.092,149.823 410.407,143.000 408.853 C 140.174 408.210,128.529 407.868,128.189 408.418 C 128.018 408.694,127.727 408.589,127.374 408.124 C 126.902 407.501,126.833 408.207,126.877 413.200 M192.708 415.183 C 192.431 416.167,192.597 416.737,193.032 416.301 C 193.160 416.173,193.201 415.648,193.124 415.134 L 192.984 414.200 192.708 415.183 M191.444 417.951 C 190.945 418.503,190.879 418.802,191.212 419.008 C 191.869 419.413,193.088 418.128,192.553 417.593 C 192.270 417.310,191.923 417.422,191.444 417.951 M189.400 419.200 C 189.264 419.420,189.534 419.600,190.000 419.600 C 190.466 419.600,190.736 419.420,190.600 419.200 C 190.464 418.980,190.194 418.800,190.000 418.800 C 189.806 418.800,189.536 418.980,189.400 419.200 M177.700 420.239 C 171.952 421.730,169.852 424.219,168.827 430.753 C 168.317 434.010,167.759 434.587,164.382 435.350 C 158.455 436.688,155.200 440.468,155.200 446.014 C 155.200 446.370,154.763 447.071,154.229 447.573 L 153.258 448.485 140.491 448.304 C 133.469 448.205,127.516 447.995,127.262 447.838 C 126.920 447.627,126.817 449.039,126.864 453.276 C 126.899 456.424,127.003 458.382,127.095 457.626 C 127.207 456.706,127.370 456.427,127.589 456.782 C 128.160 457.706,153.901 457.382,156.649 456.416 C 160.603 455.027,163.010 452.166,163.807 447.908 C 164.134 446.162,166.687 443.600,168.101 443.600 C 168.596 443.600,170.114 443.072,171.475 442.428 C 175.530 440.510,176.652 438.240,178.207 428.800 C 178.334 428.030,178.789 425.705,179.219 423.634 C 180.139 419.202,180.301 419.564,177.700 420.239 M193.759 434.900 C 195.646 441.055,199.710 444.974,205.455 446.180 L 206.710 446.444 206.204 444.122 C 204.892 438.099,202.459 435.398,196.974 433.874 C 193.250 432.840,193.139 432.875,193.759 434.900 " stroke="none" fill="#401c34" fill-rule="evenodd"></path><path id="path4" d="M148.100 7.076 C 148.485 7.176,149.115 7.176,149.500 7.076 C 149.885 6.975,149.570 6.893,148.800 6.893 C 148.030 6.893,147.715 6.975,148.100 7.076 M140.194 73.400 C 140.194 103.760,140.242 116.239,140.300 101.131 C 140.358 86.023,140.358 61.183,140.300 45.931 C 140.242 30.679,140.194 43.040,140.194 73.400 M161.510 21.225 C 155.872 22.071,154.270 24.709,154.241 33.200 C 154.215 40.803,155.528 43.691,159.625 45.041 C 162.272 45.914,215.700 46.411,222.878 45.630 C 230.923 44.755,232.409 42.827,232.394 33.280 C 232.382 26.014,231.169 23.130,227.567 21.800 C 225.207 20.929,166.867 20.421,161.510 21.225 M223.164 22.216 C 230.578 23.964,233.486 30.660,230.407 38.891 C 228.124 44.992,226.902 45.200,193.357 45.200 C 159.550 45.200,157.742 44.868,155.987 38.350 C 153.684 29.798,156.301 23.872,163.111 22.222 C 166.647 21.364,219.529 21.359,223.164 22.216 M187.261 48.005 C 183.108 48.880,181.856 50.519,181.154 56.002 C 180.498 61.123,181.421 60.699,170.481 60.904 C 155.708 61.181,154.303 62.227,154.243 73.000 C 154.199 80.725,155.525 83.690,159.625 85.041 C 162.304 85.924,215.706 86.410,222.986 85.618 C 230.824 84.766,232.376 82.748,232.384 73.400 C 232.394 62.209,231.045 61.187,215.800 60.827 L 206.200 60.600 205.670 56.800 C 204.581 48.992,203.243 47.916,194.418 47.744 C 191.438 47.686,188.218 47.804,187.261 48.005 M197.000 48.942 C 201.865 50.239,204.800 53.879,204.800 58.619 C 204.800 59.099,205.159 59.948,205.597 60.506 L 206.394 61.519 214.697 61.687 C 228.129 61.958,231.384 64.204,231.384 73.200 C 231.384 78.656,229.656 81.954,225.909 83.647 L 223.800 84.600 194.213 84.712 C 160.338 84.841,160.812 84.881,157.871 81.626 C 153.822 77.144,154.513 66.848,159.065 63.845 C 161.636 62.149,164.986 61.612,173.038 61.606 C 181.521 61.599,181.156 61.777,182.164 57.158 C 183.711 50.074,189.408 46.919,197.000 48.942 M176.873 87.644 C 169.376 88.515,168.130 89.940,167.707 98.133 C 166.997 111.886,167.450 112.155,191.558 112.326 C 218.814 112.520,218.936 112.466,218.949 100.000 C 218.959 90.030,217.844 88.583,209.400 87.618 C 205.159 87.133,181.104 87.152,176.873 87.644 M210.616 89.019 C 220.682 91.634,220.996 107.870,211.040 110.901 C 208.175 111.773,178.033 111.596,175.103 110.690 C 165.893 107.842,166.175 92.158,175.491 89.181 C 178.710 88.152,206.780 88.023,210.616 89.019 M245.600 123.533 C 245.600 123.790,245.240 124.360,244.800 124.800 C 244.360 125.240,244.176 125.600,244.391 125.600 C 244.917 125.600,246.175 123.641,245.854 123.321 C 245.714 123.181,245.600 123.277,245.600 123.533 M123.300 140.276 C 123.685 140.376,124.315 140.376,124.700 140.276 C 125.085 140.175,124.770 140.093,124.000 140.093 C 123.230 140.093,122.915 140.175,123.300 140.276 M275.300 140.276 C 275.685 140.376,276.315 140.376,276.700 140.276 C 277.085 140.175,276.770 140.093,276.000 140.093 C 275.230 140.093,274.915 140.175,275.300 140.276 M100.167 172.400 C 100.167 176.690,100.226 178.445,100.298 176.300 C 100.370 174.155,100.370 170.645,100.298 168.500 C 100.226 166.355,100.167 168.110,100.167 172.400 M96.705 180.283 C 97.202 180.379,97.922 180.375,98.305 180.275 C 98.687 180.175,98.280 180.096,97.400 180.101 C 96.520 180.105,96.207 180.187,96.705 180.283 M88.198 181.602 C 87.175 182.732,87.610 182.837,88.686 181.720 C 89.173 181.214,89.426 180.800,89.248 180.800 C 89.070 180.800,88.597 181.161,88.198 181.602 M86.893 188.800 C 86.893 189.570,86.975 189.885,87.076 189.500 C 87.176 189.115,87.176 188.485,87.076 188.100 C 86.975 187.715,86.893 188.030,86.893 188.800 M297.458 194.469 C 297.929 194.698,298.502 195.271,298.731 195.742 C 298.959 196.214,299.158 196.375,299.173 196.100 C 299.188 195.825,298.840 195.240,298.400 194.800 C 297.960 194.360,297.375 194.012,297.100 194.027 C 296.825 194.042,296.986 194.241,297.458 194.469 M299.770 213.200 C 299.770 217.930,299.828 219.865,299.898 217.500 C 299.969 215.135,299.969 211.265,299.898 208.900 C 299.828 206.535,299.770 208.470,299.770 213.200 M86.893 224.400 C 86.893 225.170,86.975 225.485,87.076 225.100 C 87.176 224.715,87.176 224.085,87.076 223.700 C 86.975 223.315,86.893 223.630,86.893 224.400 M87.600 230.752 C 87.600 231.142,89.155 232.598,89.323 232.364 C 89.387 232.274,89.026 231.801,88.520 231.314 C 88.014 230.827,87.600 230.574,87.600 230.752 M96.705 233.083 C 97.202 233.179,97.922 233.175,98.305 233.075 C 98.687 232.975,98.280 232.896,97.400 232.901 C 96.520 232.905,96.207 232.987,96.705 233.083 M299.796 326.000 L 299.800 353.400 300.800 353.466 C 301.676 353.523,301.689 353.507,300.903 353.338 L 300.005 353.145 299.899 325.873 L 299.792 298.600 299.796 326.000 M108.100 300.276 C 108.485 300.376,109.115 300.376,109.500 300.276 C 109.885 300.175,109.570 300.093,108.800 300.093 C 108.030 300.093,107.715 300.175,108.100 300.276 M100.167 319.000 C 100.167 323.180,100.226 324.836,100.298 322.679 C 100.371 320.523,100.370 317.103,100.298 315.079 C 100.225 313.056,100.166 314.820,100.167 319.000 M260.181 327.400 C 260.180 335.320,260.234 338.617,260.299 334.726 C 260.365 330.835,260.365 324.355,260.300 320.326 C 260.234 316.297,260.181 319.480,260.181 327.400 M260.827 350.300 C 260.812 350.575,261.160 351.160,261.600 351.600 C 262.040 352.040,262.625 352.388,262.900 352.373 C 263.175 352.358,263.014 352.159,262.542 351.931 C 262.071 351.702,261.498 351.129,261.269 350.658 C 261.041 350.186,260.842 350.025,260.827 350.300 M311.314 354.920 C 311.801 355.426,312.274 355.787,312.364 355.723 C 312.598 355.555,311.142 354.000,310.752 354.000 C 310.574 354.000,310.827 354.414,311.314 354.920 M112.893 357.600 C 112.893 358.370,112.975 358.685,113.076 358.300 C 113.176 357.915,113.176 357.285,113.076 356.900 C 112.975 356.515,112.893 356.830,112.893 357.600 M312.893 362.000 C 312.893 362.770,312.975 363.085,313.076 362.700 C 313.176 362.315,313.176 361.685,313.076 361.300 C 312.975 360.915,312.893 361.230,312.893 362.000 M111.314 364.680 C 110.827 365.186,110.574 365.600,110.752 365.600 C 111.142 365.600,112.598 364.045,112.364 363.877 C 112.274 363.813,111.801 364.174,111.314 364.680 M103.700 366.276 C 104.085 366.376,104.715 366.376,105.100 366.276 C 105.485 366.175,105.170 366.093,104.400 366.093 C 103.630 366.093,103.315 366.175,103.700 366.276 M99.767 374.000 C 99.767 378.290,99.826 380.045,99.898 377.900 C 99.970 375.755,99.970 372.245,99.898 370.100 C 99.826 367.955,99.767 369.710,99.767 374.000 M274.012 376.611 C 273.993 377.246,275.191 378.800,275.699 378.800 C 275.949 378.800,275.871 378.575,275.526 378.300 C 275.181 378.025,274.703 377.440,274.462 377.000 C 274.221 376.560,274.019 376.385,274.012 376.611 M60.114 379.800 C 60.117 380.900,60.195 381.303,60.287 380.695 C 60.379 380.086,60.377 379.186,60.282 378.695 C 60.187 378.203,60.111 378.700,60.114 379.800 M60.827 390.300 C 60.812 390.575,61.160 391.160,61.600 391.600 C 62.040 392.040,62.625 392.388,62.900 392.373 C 63.175 392.358,63.014 392.159,62.542 391.931 C 62.071 391.702,61.498 391.129,61.269 390.658 C 61.041 390.186,60.842 390.025,60.827 390.300 M98.616 390.749 C 98.475 391.195,97.995 391.675,97.549 391.816 C 97.104 391.957,96.818 392.151,96.913 392.246 C 97.008 392.341,97.386 392.303,97.754 392.162 C 98.468 391.888,99.394 390.461,99.069 390.136 C 98.961 390.028,98.757 390.304,98.616 390.749 M286.893 397.600 C 286.893 398.370,286.975 398.685,287.076 398.300 C 287.176 397.915,287.176 397.285,287.076 396.900 C 286.975 396.515,286.893 396.830,286.893 397.600 M287.600 403.952 C 287.600 404.342,289.155 405.798,289.323 405.564 C 289.387 405.474,289.026 405.001,288.520 404.514 C 288.014 404.027,287.600 403.774,287.600 403.952 M259.770 413.200 C 259.770 417.930,259.828 419.865,259.898 417.500 C 259.969 415.135,259.969 411.265,259.898 408.900 C 259.828 406.535,259.770 408.470,259.770 413.200 M294.900 406.276 C 295.285 406.376,295.915 406.376,296.300 406.276 C 296.685 406.175,296.370 406.093,295.600 406.093 C 294.830 406.093,294.515 406.175,294.900 406.276 M300.181 420.600 C 300.180 428.520,300.234 431.817,300.299 427.926 C 300.365 424.035,300.365 417.555,300.300 413.526 C 300.234 409.497,300.181 412.680,300.181 420.600 M192.893 428.800 C 192.893 429.570,192.975 429.885,193.076 429.500 C 193.176 429.115,193.176 428.485,193.076 428.100 C 192.975 427.715,192.893 428.030,192.893 428.800 M339.709 433.200 C 339.709 434.190,339.787 434.595,339.882 434.100 C 339.978 433.605,339.978 432.795,339.882 432.300 C 339.787 431.805,339.709 432.210,339.709 433.200 M259.781 459.800 C 259.781 468.160,259.834 471.637,259.899 467.526 C 259.964 463.416,259.964 456.576,259.900 452.326 C 259.835 448.077,259.782 451.440,259.781 459.800 M309.905 446.283 C 310.402 446.379,311.122 446.375,311.505 446.275 C 311.887 446.175,311.480 446.096,310.600 446.101 C 309.720 446.105,309.407 446.187,309.905 446.283 M328.705 446.283 C 329.202 446.379,329.922 446.375,330.305 446.275 C 330.687 446.175,330.280 446.096,329.400 446.101 C 328.520 446.105,328.207 446.187,328.705 446.283 M126.893 477.600 C 126.893 478.370,126.975 478.685,127.076 478.300 C 127.176 477.915,127.176 477.285,127.076 476.900 C 126.975 476.515,126.893 476.830,126.893 477.600 M206.893 477.600 C 206.893 478.370,206.975 478.685,207.076 478.300 C 207.176 477.915,207.176 477.285,207.076 476.900 C 206.975 476.515,206.893 476.830,206.893 477.600 M127.600 483.952 C 127.600 484.342,129.155 485.798,129.323 485.564 C 129.387 485.474,129.026 485.001,128.520 484.514 C 128.014 484.027,127.600 483.774,127.600 483.952 M207.600 483.952 C 207.600 484.342,209.155 485.798,209.323 485.564 C 209.387 485.474,209.026 485.001,208.520 484.514 C 208.014 484.027,207.600 483.774,207.600 483.952 M136.705 486.283 C 137.202 486.379,137.922 486.375,138.305 486.275 C 138.687 486.175,138.280 486.096,137.400 486.101 C 136.520 486.105,136.207 486.187,136.705 486.283 M168.705 486.283 C 169.202 486.379,169.922 486.375,170.305 486.275 C 170.687 486.175,170.280 486.096,169.400 486.101 C 168.520 486.105,168.207 486.187,168.705 486.283 M216.705 486.283 C 217.202 486.379,217.922 486.375,218.305 486.275 C 218.687 486.175,218.280 486.096,217.400 486.101 C 216.520 486.105,216.207 486.187,216.705 486.283 M248.705 486.283 C 249.202 486.379,249.922 486.375,250.305 486.275 C 250.687 486.175,250.280 486.096,249.400 486.101 C 248.520 486.105,248.207 486.187,248.705 486.283 M140.194 540.600 C 140.194 570.520,140.242 582.701,140.300 567.669 C 140.358 552.637,140.358 528.157,140.300 513.269 C 140.242 498.381,140.194 510.680,140.194 540.600 M220.194 540.600 C 220.194 570.520,220.242 582.701,220.300 567.669 C 220.358 552.637,220.358 528.157,220.300 513.269 C 220.242 498.381,220.194 510.680,220.194 540.600 M140.827 603.500 C 140.792 604.148,142.252 605.608,142.900 605.573 C 143.175 605.558,143.014 605.359,142.542 605.131 C 142.071 604.902,141.498 604.329,141.269 603.858 C 141.041 603.386,140.842 603.225,140.827 603.500 M220.827 603.500 C 220.792 604.148,222.252 605.608,222.900 605.573 C 223.175 605.558,223.014 605.359,222.542 605.131 C 222.071 604.902,221.498 604.329,221.269 603.858 C 221.041 603.386,220.842 603.225,220.827 603.500 M152.505 606.287 C 153.114 606.379,154.014 606.377,154.505 606.282 C 154.997 606.187,154.500 606.111,153.400 606.114 C 152.300 606.117,151.897 606.195,152.505 606.287 M232.505 606.287 C 233.114 606.379,234.014 606.377,234.505 606.282 C 234.997 606.187,234.500 606.111,233.400 606.114 C 232.300 606.117,231.897 606.195,232.505 606.287 " stroke="none" fill="#0c2034" fill-rule="evenodd"></path></g></svg>