<svg id="svg" version="1.1" xmlns="http://www.w3.org/2000/svg" xmlns:xlink="http://www.w3.org/1999/xlink" width="400" height="400" viewBox="0, 0, 400,400"><g id="svgg"><path id="path0" d="M135.401 27.326 C 132.127 28.519,128.515 32.092,127.441 35.202 C 125.435 41.012,116.772 49.963,111.176 52.009 C 103.793 54.707,102.270 57.500,99.930 72.628 L 98.635 81.000 98.397 122.800 C 98.159 164.516,98.096 166.420,96.892 168.367 C 95.133 171.209,93.698 172.086,89.600 172.823 C 79.019 174.727,76.020 177.149,73.617 185.734 C 72.289 190.475,69.362 195.155,65.256 199.100 L 62.654 201.600 49.760 201.600 L 36.866 201.600 34.133 203.019 C 30.973 204.660,29.478 206.180,27.800 209.456 L 26.600 211.800 26.365 226.400 C 26.231 234.774,25.929 242.109,25.658 243.600 C 22.970 258.401,23.050 263.163,26.209 276.400 C 30.314 293.598,35.126 297.147,59.885 301.236 L 62.766 301.712 65.683 299.990 C 70.381 297.217,73.472 293.764,76.176 288.267 C 79.540 281.426,85.560 273.600,87.457 273.600 C 91.097 273.600,101.362 285.477,101.804 290.200 C 102.387 296.426,103.336 304.141,104.227 309.896 C 104.678 312.806,104.800 318.872,104.800 338.452 L 104.800 363.313 106.247 365.210 C 107.042 366.253,108.606 367.803,109.721 368.653 L 111.749 370.200 137.290 370.309 L 162.831 370.417 164.515 369.247 C 167.878 366.910,169.770 364.362,171.344 360.048 C 172.410 357.127,175.679 343.873,176.190 340.400 C 176.885 335.679,179.576 330.987,184.276 326.300 L 186.984 323.600 200.000 323.600 L 213.016 323.600 215.718 326.300 C 219.105 329.685,220.925 332.372,223.824 338.267 C 226.528 343.764,229.619 347.217,234.317 349.990 L 237.234 351.712 240.115 351.236 C 267.238 346.757,270.688 343.488,275.776 317.458 L 276.703 312.717 275.774 304.658 C 275.263 300.226,274.538 294.513,274.161 291.962 L 273.477 287.323 274.808 285.362 C 276.523 282.832,282.832 276.523,285.362 274.808 L 287.323 273.477 291.962 274.161 C 294.513 274.538,300.226 275.263,304.658 275.774 L 312.717 276.703 317.458 275.776 C 342.059 270.968,344.920 268.567,349.369 249.000 C 352.088 237.042,352.057 235.031,349.078 230.072 C 345.598 224.279,341.979 223.255,324.874 223.223 C 316.211 223.207,312.078 223.057,311.474 222.738 C 307.318 220.539,302.153 214.536,301.420 211.051 C 299.987 204.238,296.724 200.602,290.600 198.991 C 289.940 198.817,289.220 198.622,289.000 198.557 C 288.780 198.492,287.366 198.233,285.858 197.982 C 281.291 197.220,277.851 194.696,277.399 191.775 C 276.663 187.018,276.647 187.271,277.788 185.546 C 280.880 180.875,285.435 177.236,289.474 176.212 C 295.984 174.561,299.232 171.554,300.866 165.667 C 301.568 163.136,301.605 160.404,301.597 111.982 L 301.588 60.964 300.640 58.350 C 298.455 52.326,295.444 49.836,288.800 48.562 C 283.436 47.533,274.170 39.972,272.602 35.345 C 271.455 31.961,267.963 28.535,264.400 27.296 L 261.800 26.392 199.800 26.422 L 137.800 26.453 135.401 27.326 M165.799 76.586 C 169.347 78.798,171.732 81.310,173.977 85.201 C 178.397 92.863,181.028 95.898,185.429 98.417 L 187.599 99.658 189.909 98.256 C 193.022 96.364,197.122 92.015,199.011 88.600 C 202.612 82.091,205.247 79.038,209.681 76.240 C 212.521 74.447,212.350 74.437,215.799 76.586 C 219.347 78.798,221.732 81.310,223.977 85.201 C 228.397 92.863,231.028 95.898,235.429 98.417 L 237.599 99.658 239.909 98.256 C 243.022 96.364,247.122 92.015,249.011 88.600 C 252.612 82.091,255.247 79.038,259.681 76.240 C 262.481 74.472,262.352 74.471,265.348 76.285 C 268.791 78.369,271.335 80.866,273.414 84.201 L 275.200 87.067 275.200 99.657 L 275.200 112.247 276.623 114.624 C 278.540 117.827,282.333 121.592,285.521 123.456 C 288.009 124.910,291.899 128.107,293.200 129.765 C 293.530 130.185,294.745 131.883,295.900 133.538 L 298.000 136.547 298.000 149.727 C 298.000 165.333,298.037 165.134,294.407 168.914 C 292.164 171.249,291.372 171.786,288.733 172.761 C 284.900 174.178,280.616 176.997,278.179 179.708 C 276.455 181.625,272.800 187.341,272.800 188.120 C 272.800 188.630,270.443 192.028,269.042 193.538 C 267.320 195.393,265.088 196.881,260.730 199.077 C 255.541 201.692,251.692 205.541,249.077 210.730 C 246.035 216.766,244.374 218.808,240.200 221.642 L 238.200 223.000 200.000 223.000 L 161.800 223.000 159.800 221.642 C 155.626 218.808,153.965 216.766,150.923 210.730 C 148.301 205.527,144.461 201.693,139.235 199.059 C 131.902 195.364,130.019 193.526,126.390 186.521 C 123.191 180.347,119.653 176.809,113.479 173.610 C 107.972 170.757,105.866 169.010,103.258 165.128 L 102.000 163.256 102.000 149.901 L 102.000 136.547 104.100 133.538 C 105.255 131.883,106.470 130.185,106.800 129.765 C 108.115 128.089,112.004 124.903,114.560 123.408 C 118.299 121.222,122.097 117.062,124.800 112.191 C 127.524 107.283,131.023 103.469,134.912 101.170 C 136.500 100.230,138.794 98.875,140.009 98.157 C 142.996 96.393,147.126 92.009,149.011 88.600 C 152.578 82.151,155.190 79.108,159.600 76.261 C 162.393 74.458,162.383 74.457,165.799 76.586 M160.105 124.370 C 155.055 127.154,152.555 129.593,149.644 134.574 L 148.029 137.338 149.506 140.169 C 150.477 142.029,152.015 144.031,153.992 146.008 C 155.969 147.985,157.971 149.523,159.831 150.494 L 162.662 151.971 165.426 150.356 C 170.487 147.399,173.637 144.062,176.024 139.132 L 176.929 137.263 175.193 134.332 C 173.001 130.631,169.410 127.023,165.777 124.871 C 162.432 122.892,162.737 122.918,160.105 124.370 M234.200 124.877 C 230.572 127.043,226.985 130.654,224.807 134.332 L 223.071 137.263 223.976 139.132 C 226.363 144.062,229.513 147.399,234.574 150.356 L 237.338 151.971 240.169 150.494 C 242.029 149.523,244.031 147.985,246.008 146.008 C 247.985 144.031,249.523 142.029,250.494 140.169 L 251.971 137.338 250.356 134.574 C 247.445 129.593,244.225 126.523,239.316 124.049 C 237.173 122.969,237.476 122.920,234.200 124.877 M165.456 128.534 C 170.145 132.004,173.616 136.569,172.847 138.256 C 170.985 142.343,163.716 148.747,161.800 147.989 C 159.418 147.046,152.385 139.914,151.860 137.909 C 151.468 136.409,156.389 130.608,160.186 128.092 C 162.652 126.459,162.651 126.459,165.456 128.534 M239.814 128.092 C 243.611 130.608,248.532 136.409,248.140 137.909 C 247.615 139.914,240.582 147.046,238.200 147.989 C 236.284 148.747,229.015 142.343,227.153 138.256 C 226.384 136.569,229.855 132.004,234.544 128.534 C 237.349 126.459,237.348 126.459,239.814 128.092 M184.200 174.877 C 180.572 177.043,176.985 180.654,174.807 184.332 L 173.071 187.263 173.976 189.132 C 176.367 194.070,179.512 197.398,184.599 200.371 L 187.387 202.000 200.000 202.000 L 212.613 202.000 215.401 200.371 C 220.488 197.398,223.633 194.070,226.024 189.132 L 226.929 187.263 225.193 184.332 C 223.001 180.631,219.410 177.023,215.777 174.871 L 212.953 173.200 199.977 173.202 L 187.000 173.204 184.200 174.877 M115.456 178.534 C 118.071 180.469,120.565 183.058,122.212 185.546 C 123.353 187.271,123.337 187.018,122.601 191.775 C 122.145 194.717,118.340 197.487,114.228 197.869 L 111.800 198.095 108.976 195.885 C 107.423 194.669,105.199 192.442,104.033 190.937 L 101.912 188.200 102.134 185.772 C 102.532 181.424,105.322 177.804,108.598 177.384 C 109.450 177.275,110.234 177.099,110.340 176.993 C 111.061 176.273,113.318 176.953,115.456 178.534 M215.456 178.534 C 219.615 181.612,223.494 186.443,223.016 187.951 C 222.316 190.156,217.158 195.589,213.800 197.658 C 211.965 198.788,188.035 198.788,186.200 197.658 C 182.842 195.589,177.684 190.156,176.984 187.951 C 176.506 186.443,180.385 181.612,184.544 178.534 L 186.888 176.800 200.000 176.800 L 213.112 176.800 215.456 178.534 M140.723 203.755 C 146.783 208.454,148.645 211.600,147.834 215.768 C 146.777 221.201,140.097 224.739,135.729 222.180 C 133.357 220.789,129.211 216.643,127.820 214.271 C 125.261 209.903,128.884 203.072,134.208 202.226 C 135.058 202.090,135.853 201.881,135.974 201.759 C 136.501 201.232,138.617 202.122,140.723 203.755 M266.167 202.265 C 271.159 203.138,274.636 210.080,272.180 214.271 C 269.053 219.607,263.564 223.488,260.112 222.803 C 254.460 221.683,251.869 218.590,251.858 212.948 C 251.852 209.540,260.718 201.298,263.800 201.847 C 264.460 201.965,265.525 202.153,266.167 202.265 M241.575 227.304 C 244.787 227.952,247.479 231.572,247.869 235.772 L 248.095 238.200 245.902 241.000 C 243.884 243.576,240.249 246.820,238.126 247.939 C 237.485 248.277,227.335 248.400,200.000 248.400 C 172.665 248.400,162.515 248.277,161.874 247.939 C 159.751 246.820,156.116 243.576,154.098 241.000 L 151.905 238.200 152.131 235.772 C 152.535 231.421,155.325 227.803,158.598 227.384 C 159.450 227.275,160.237 227.097,160.346 226.987 C 160.653 226.681,240.017 226.989,241.575 227.304 M339.752 227.616 C 342.679 228.711,346.816 233.000,347.581 235.731 C 348.837 240.217,343.278 261.083,339.871 264.676 C 337.470 267.206,328.718 270.079,315.622 272.635 C 311.343 273.470,305.948 270.406,301.632 264.689 L 300.030 262.567 299.770 250.121 L 299.510 237.675 300.824 235.738 C 303.025 232.491,305.611 230.268,309.756 228.057 L 312.113 226.800 324.841 226.800 C 336.676 226.800,337.723 226.857,339.752 227.616 M65.235 251.221 C 68.586 253.246,71.825 256.613,73.680 260.000 L 75.104 262.600 74.569 268.600 C 74.275 271.900,73.841 277.473,73.605 280.985 C 73.060 289.104,71.891 291.317,65.644 296.069 C 62.390 298.545,62.276 298.541,50.600 295.601 C 33.091 291.193,32.109 289.926,27.365 265.622 C 26.530 261.343,29.594 255.948,35.313 251.631 L 37.436 250.028 42.018 249.914 C 44.538 249.851,50.189 249.755,54.576 249.700 L 62.551 249.600 65.235 251.221 M164.879 301.274 C 167.890 302.879,172.003 307.003,173.750 310.169 L 175.091 312.600 174.562 318.600 C 174.271 321.900,173.838 327.520,173.600 331.089 C 172.649 345.322,168.303 361.311,164.389 364.971 L 162.434 366.800 137.400 366.800 L 112.366 366.800 110.383 364.945 L 108.400 363.091 108.400 337.699 L 108.400 312.307 109.764 310.454 C 112.757 306.384,117.518 304.320,131.000 301.244 C 136.177 300.063,136.258 300.057,149.344 300.029 L 162.488 300.000 164.879 301.274 M264.669 301.617 C 270.406 305.948,273.471 311.338,272.635 315.622 C 267.891 339.926,266.909 341.193,249.400 345.601 C 237.724 348.541,237.610 348.545,234.356 346.069 C 228.109 341.317,226.940 339.104,226.395 330.985 C 226.159 327.473,225.728 321.900,225.437 318.600 L 224.909 312.600 226.250 310.169 C 227.976 307.041,232.075 302.910,235.059 301.291 L 237.400 300.021 249.964 300.011 L 262.527 300.000 264.669 301.617 " stroke="none" fill="#274abf" fill-rule="evenodd"></path><path id="path1" d="M112.400 6.142 L 112.400 12.285 101.336 12.576 C 89.923 12.877,88.743 13.029,88.174 14.269 C 87.989 14.671,87.770 20.070,87.687 26.268 L 87.536 37.536 76.268 37.687 C 70.070 37.770,64.671 37.989,64.269 38.174 C 62.612 38.935,62.630 38.284,62.484 101.444 L 62.344 162.288 38.862 162.482 C 14.625 162.682,14.099 162.719,13.242 164.322 C 13.035 164.709,12.734 170.105,12.574 176.313 L 12.283 187.600 6.141 187.600 L 0.000 187.600 0.000 250.000 L 0.000 312.400 6.144 312.400 L 12.287 312.400 12.581 323.697 C 12.743 329.910,13.042 335.306,13.247 335.687 C 14.093 337.268,14.667 337.309,38.825 337.515 L 62.286 337.714 62.485 361.175 C 62.691 385.333,62.732 385.907,64.313 386.753 C 64.694 386.958,70.090 387.257,76.303 387.419 L 87.600 387.713 87.600 393.856 L 87.600 400.000 137.600 400.000 L 187.600 400.000 187.600 393.834 L 187.600 387.668 236.100 387.534 C 287.039 387.393,285.816 387.438,286.758 385.678 C 286.965 385.291,287.266 379.909,287.425 373.719 L 287.716 362.464 299.047 362.332 C 310.221 362.202,310.392 362.187,311.289 361.289 L 312.200 360.378 312.318 336.407 L 312.435 312.435 336.407 312.318 L 360.378 312.200 361.289 311.289 C 362.187 310.392,362.202 310.221,362.332 299.047 L 362.464 287.716 373.732 287.430 C 385.930 287.122,386.501 287.013,387.094 284.895 C 387.494 283.465,387.494 216.535,387.094 215.105 C 386.503 212.993,385.926 212.884,373.732 212.575 L 362.464 212.289 362.332 200.955 C 362.202 189.780,362.187 189.608,361.289 188.711 L 360.379 187.800 342.689 187.585 C 332.960 187.466,327.303 187.331,330.118 187.285 C 337.524 187.162,337.032 187.982,337.390 175.165 C 337.863 158.238,337.455 40.780,336.919 39.555 C 336.204 37.920,335.686 37.847,323.732 37.687 L 312.464 37.536 312.313 26.268 C 312.230 20.070,312.011 14.671,311.826 14.269 C 311.257 13.029,310.077 12.877,298.664 12.576 L 287.600 12.285 287.600 6.142 L 287.600 0.000 200.000 0.000 L 112.400 0.000 112.400 6.142 M264.400 27.296 C 267.963 28.535,271.455 31.961,272.602 35.345 C 274.170 39.972,283.436 47.533,288.800 48.562 C 295.444 49.836,298.455 52.326,300.640 58.350 L 301.588 60.964 301.597 111.982 C 301.605 160.404,301.568 163.136,300.866 165.667 C 299.232 171.554,295.984 174.561,289.474 176.212 C 285.435 177.236,280.880 180.875,277.788 185.546 C 276.647 187.271,276.663 187.018,277.399 191.775 C 277.851 194.696,281.291 197.220,285.858 197.982 C 287.366 198.233,288.780 198.492,289.000 198.557 C 289.220 198.622,289.940 198.817,290.600 198.991 C 296.724 200.602,299.987 204.238,301.420 211.051 C 302.153 214.536,307.318 220.539,311.474 222.738 C 312.078 223.057,316.211 223.207,324.874 223.223 C 341.979 223.255,345.598 224.279,349.078 230.072 C 352.057 235.031,352.088 237.042,349.369 249.000 C 344.920 268.567,342.059 270.968,317.458 275.776 L 312.717 276.703 304.658 275.774 C 300.226 275.263,294.513 274.538,291.962 274.161 L 287.323 273.477 285.362 274.808 C 282.832 276.523,276.523 282.832,274.808 285.362 L 273.477 287.323 274.161 291.962 C 274.538 294.513,275.263 300.226,275.774 304.658 L 276.703 312.717 275.776 317.458 C 270.688 343.488,267.238 346.757,240.115 351.236 L 237.234 351.712 234.317 349.990 C 229.619 347.217,226.528 343.764,223.824 338.267 C 220.925 332.372,219.105 329.685,215.718 326.300 L 213.016 323.600 200.000 323.600 L 186.984 323.600 184.276 326.300 C 179.576 330.987,176.885 335.679,176.190 340.400 C 173.989 355.363,169.877 365.521,164.515 369.247 L 162.831 370.417 137.290 370.309 L 111.749 370.200 109.721 368.653 C 108.606 367.803,107.042 366.253,106.247 365.210 L 104.800 363.313 104.800 338.452 C 104.800 318.872,104.678 312.806,104.227 309.896 C 103.336 304.141,102.387 296.426,101.804 290.200 C 101.362 285.477,91.097 273.600,87.457 273.600 C 85.560 273.600,79.540 281.426,76.176 288.267 C 73.472 293.764,70.381 297.217,65.683 299.990 L 62.766 301.712 59.885 301.236 C 35.126 297.147,30.314 293.598,26.209 276.400 C 23.050 263.163,22.970 258.401,25.658 243.600 C 25.929 242.109,26.231 234.774,26.365 226.400 L 26.600 211.800 27.800 209.456 C 29.478 206.180,30.973 204.660,34.133 203.019 L 36.866 201.600 49.760 201.600 L 62.654 201.600 65.256 199.100 C 69.362 195.155,72.289 190.475,73.617 185.734 C 76.020 177.149,79.019 174.727,89.600 172.823 C 93.698 172.086,95.133 171.209,96.892 168.367 C 98.096 166.420,98.159 164.516,98.397 122.800 L 98.635 81.000 99.930 72.628 C 102.270 57.500,103.793 54.707,111.176 52.009 C 116.772 49.963,125.435 41.012,127.441 35.202 C 128.515 32.092,132.127 28.519,135.401 27.326 L 137.800 26.453 199.800 26.422 L 261.800 26.392 264.400 27.296 M160.186 128.092 C 156.389 130.608,151.468 136.409,151.860 137.909 C 152.385 139.914,159.418 147.046,161.800 147.989 C 163.716 148.747,170.985 142.343,172.847 138.256 C 173.616 136.569,170.145 132.004,165.456 128.534 C 162.651 126.459,162.652 126.459,160.186 128.092 M234.544 128.534 C 229.855 132.004,226.384 136.569,227.153 138.256 C 229.015 142.343,236.284 148.747,238.200 147.989 C 240.582 147.046,247.615 139.914,248.140 137.909 C 248.532 136.409,243.611 130.608,239.814 128.092 C 237.348 126.459,237.349 126.459,234.544 128.534 M110.340 176.993 C 110.234 177.099,109.450 177.275,108.598 177.384 C 105.322 177.804,102.532 181.424,102.134 185.772 L 101.912 188.200 104.033 190.937 C 105.199 192.442,107.423 194.669,108.976 195.885 L 111.800 198.095 114.228 197.869 C 118.340 197.487,122.145 194.717,122.601 191.775 C 123.337 187.018,123.353 187.271,122.212 185.546 C 118.650 180.163,111.977 175.356,110.340 176.993 M184.544 178.534 C 180.385 181.612,176.506 186.443,176.984 187.951 C 177.684 190.156,182.842 195.589,186.200 197.658 C 188.035 198.788,211.965 198.788,213.800 197.658 C 217.158 195.589,222.316 190.156,223.016 187.951 C 223.494 186.443,219.615 181.612,215.456 178.534 L 213.112 176.800 200.000 176.800 L 186.888 176.800 184.544 178.534 M135.974 201.759 C 135.853 201.881,135.058 202.090,134.208 202.226 C 128.884 203.072,125.261 209.903,127.820 214.271 C 130.947 219.607,136.436 223.488,139.888 222.803 C 145.540 221.683,148.131 218.590,148.142 212.948 C 148.148 209.608,137.717 200.016,135.974 201.759 M262.000 201.878 C 260.027 202.682,255.799 206.559,253.198 209.948 C 248.418 216.178,257.463 226.169,264.271 222.180 C 266.643 220.789,270.789 216.643,272.180 214.271 C 274.636 210.080,271.159 203.138,266.167 202.265 C 265.525 202.153,264.460 201.965,263.800 201.847 C 263.140 201.730,262.330 201.744,262.000 201.878 M160.346 226.987 C 160.237 227.097,159.450 227.275,158.598 227.384 C 155.325 227.803,152.535 231.421,152.131 235.772 L 151.905 238.200 154.098 241.000 C 156.116 243.576,159.751 246.820,161.874 247.939 C 162.515 248.277,172.665 248.400,200.000 248.400 C 227.335 248.400,237.485 248.277,238.126 247.939 C 240.249 246.820,243.884 243.576,245.902 241.000 L 248.095 238.200 247.869 235.772 C 247.479 231.572,244.787 227.952,241.575 227.304 C 240.017 226.989,160.653 226.681,160.346 226.987 " stroke="none" fill="#000101" fill-rule="evenodd"></path><path id="path2" d="M159.600 76.261 C 155.190 79.108,152.578 82.151,149.011 88.600 C 147.126 92.009,142.996 96.393,140.009 98.157 C 138.794 98.875,136.500 100.230,134.912 101.170 C 131.023 103.469,127.524 107.283,124.800 112.191 C 122.097 117.062,118.299 121.222,114.560 123.408 C 112.004 124.903,108.115 128.089,106.800 129.765 C 106.470 130.185,105.255 131.883,104.100 133.538 L 102.000 136.547 102.000 149.901 L 102.000 163.256 103.258 165.128 C 105.866 169.010,107.972 170.757,113.479 173.610 C 119.653 176.809,123.191 180.347,126.390 186.521 C 130.019 193.526,131.902 195.364,139.235 199.059 C 144.461 201.693,148.301 205.527,150.923 210.730 C 153.965 216.766,155.626 218.808,159.800 221.642 L 161.800 223.000 200.000 223.000 L 238.200 223.000 240.200 221.642 C 244.374 218.808,246.035 216.766,249.077 210.730 C 251.692 205.541,255.541 201.692,260.730 199.077 C 265.088 196.881,267.320 195.393,269.042 193.538 C 270.443 192.028,272.800 188.630,272.800 188.120 C 272.800 187.341,276.455 181.625,278.179 179.708 C 280.616 176.997,284.900 174.178,288.733 172.761 C 291.372 171.786,292.164 171.249,294.407 168.914 C 298.037 165.134,298.000 165.333,298.000 149.727 L 298.000 136.547 295.900 133.538 C 294.745 131.883,293.530 130.185,293.200 129.765 C 291.899 128.107,288.009 124.910,285.521 123.456 C 282.333 121.592,278.540 117.827,276.623 114.624 L 275.200 112.247 275.200 99.657 L 275.200 87.067 273.414 84.201 C 271.335 80.866,268.791 78.369,265.348 76.285 C 262.352 74.471,262.481 74.472,259.681 76.240 C 255.247 79.038,252.612 82.091,249.011 88.600 C 247.122 92.015,243.022 96.364,239.909 98.256 L 237.599 99.658 235.429 98.417 C 231.028 95.898,228.397 92.863,223.977 85.201 C 221.732 81.310,219.347 78.798,215.799 76.586 C 212.350 74.437,212.521 74.447,209.681 76.240 C 205.247 79.038,202.612 82.091,199.011 88.600 C 197.122 92.015,193.022 96.364,189.909 98.256 L 187.599 99.658 185.429 98.417 C 181.028 95.898,178.397 92.863,173.977 85.201 C 171.732 81.310,169.347 78.798,165.799 76.586 C 162.383 74.457,162.393 74.458,159.600 76.261 M165.777 124.871 C 169.410 127.023,173.001 130.631,175.193 134.332 L 176.929 137.263 176.024 139.132 C 173.637 144.062,170.487 147.399,165.426 150.356 L 162.662 151.971 159.831 150.494 C 157.971 149.523,155.969 147.985,153.992 146.008 C 152.015 144.031,150.477 142.029,149.506 140.169 L 148.029 137.338 149.644 134.574 C 152.555 129.593,155.055 127.154,160.105 124.370 C 162.737 122.918,162.432 122.892,165.777 124.871 M239.316 124.049 C 244.225 126.523,247.445 129.593,250.356 134.574 L 251.971 137.338 250.494 140.169 C 248.513 143.965,243.965 148.513,240.169 150.494 L 237.338 151.971 234.574 150.356 C 229.513 147.399,226.363 144.062,223.976 139.132 L 223.071 137.263 224.807 134.332 C 226.985 130.654,230.572 127.043,234.200 124.877 C 237.476 122.920,237.173 122.969,239.316 124.049 M215.777 174.871 C 219.410 177.023,223.001 180.631,225.193 184.332 L 226.929 187.263 226.024 189.132 C 223.633 194.070,220.488 197.398,215.401 200.371 L 212.613 202.000 200.000 202.000 L 187.387 202.000 184.599 200.371 C 179.512 197.398,176.367 194.070,173.976 189.132 L 173.071 187.263 174.807 184.332 C 176.985 180.654,180.572 177.043,184.200 174.877 L 187.000 173.204 199.977 173.202 L 212.953 173.200 215.777 174.871 M309.756 228.057 C 305.611 230.268,303.025 232.491,300.824 235.738 L 299.510 237.675 299.770 250.121 L 300.030 262.567 301.632 264.689 C 305.948 270.406,311.343 273.470,315.622 272.635 C 339.928 267.891,341.206 266.901,345.593 249.400 C 348.822 236.517,348.772 235.681,344.496 231.149 C 340.429 226.837,340.261 226.800,324.841 226.800 L 312.113 226.800 309.756 228.057 M42.018 249.914 L 37.436 250.028 35.313 251.631 C 29.594 255.948,26.530 261.343,27.365 265.622 C 32.109 289.926,33.091 291.193,50.600 295.601 C 62.276 298.541,62.390 298.545,65.644 296.069 C 71.891 291.317,73.060 289.104,73.605 280.985 C 73.841 277.473,74.275 271.900,74.569 268.600 L 75.104 262.600 73.680 260.000 C 71.825 256.613,68.586 253.246,65.235 251.221 L 62.551 249.600 54.576 249.700 C 50.189 249.755,44.538 249.851,42.018 249.914 M131.000 301.244 C 117.518 304.320,112.757 306.384,109.764 310.454 L 108.400 312.307 108.400 337.699 L 108.400 363.091 110.383 364.945 L 112.366 366.800 137.400 366.800 L 162.434 366.800 164.389 364.971 C 168.303 361.311,172.649 345.322,173.600 331.089 C 173.838 327.520,174.271 321.900,174.562 318.600 L 175.091 312.600 173.750 310.169 C 172.003 307.003,167.890 302.879,164.879 301.274 L 162.488 300.000 149.344 300.029 C 136.258 300.057,136.177 300.063,131.000 301.244 M235.059 301.291 C 232.075 302.910,227.976 307.041,226.250 310.169 L 224.909 312.600 225.437 318.600 C 225.728 321.900,226.159 327.473,226.395 330.985 C 226.940 339.104,228.109 341.317,234.356 346.069 C 237.610 348.545,237.724 348.541,249.400 345.601 C 266.909 341.193,267.891 339.926,272.635 315.622 C 273.471 311.338,270.406 305.948,264.669 301.617 L 262.527 300.000 249.964 300.011 L 237.400 300.021 235.059 301.291 " stroke="none" fill="#edb7a5" fill-rule="evenodd"></path></g></svg>